<?xml version="1.0" standalone="no"?>
<!DOCTYPE svg PUBLIC "-//W3C//DTD SVG 20010904//EN"
 "http://www.w3.org/TR/2001/REC-SVG-20010904/DTD/svg10.dtd">
<svg version="1.0" xmlns="http://www.w3.org/2000/svg"
 width="500.000000pt" height="232.000000pt" viewBox="0 0 500.000000 232.000000"
 preserveAspectRatio="xMidYMid meet">

<g transform="translate(0.000000,232.000000) scale(0.100000,-0.100000)"
fill="#000000" stroke="none">
<path d="M1411 2196 c-1 -67 -34 -186 -52 -186 -4 0 -13 15 -20 34 -7 19 -17
34 -23 33 -6 -1 -21 18 -33 43 -21 40 -23 42 -23 17 0 -15 10 -47 21 -70 18
-35 21 -52 15 -114 -6 -79 -31 -152 -45 -137 -5 5 -13 24 -18 42 -10 39 -26
43 -34 10 -5 -22 -6 -22 -22 10 -17 31 -37 43 -37 21 0 -15 36 -66 76 -109
l33 -35 -38 -113 c-39 -115 -52 -139 -69 -128 -32 20 -44 328 -18 454 8 40 30
107 49 150 41 92 53 136 36 130 -7 -2 -18 -24 -25 -48 -17 -57 -46 -110 -59
-110 -6 0 -25 28 -42 63 -40 78 -45 44 -7 -46 27 -62 27 -62 15 -187 -7 -69
-16 -129 -21 -134 -4 -4 -29 19 -56 53 -26 33 -51 58 -55 55 -5 -3 -2 -16 7
-30 22 -32 1 -32 -38 1 -30 25 -55 34 -43 15 3 -6 39 -34 78 -63 93 -69 96
-74 108 -149 11 -76 27 -548 18 -548 -29 0 -210 237 -233 305 -9 26 -21 109
-27 184 -6 75 -19 213 -30 308 -10 94 -19 178 -19 186 0 10 -7 13 -21 10 -19
-5 -21 -11 -15 -62 4 -31 15 -86 26 -121 21 -70 26 -115 10 -105 -5 3 -37 59
-71 125 -59 114 -103 179 -80 117 6 -15 20 -44 31 -67 23 -44 21 -47 -16 -24
-39 26 -43 5 -4 -28 19 -16 44 -38 55 -48 43 -38 77 -124 82 -212 l6 -83 -37
35 c-41 38 -40 36 12 -70 35 -72 41 -110 16 -110 -46 0 -136 112 -153 190 -6
25 -21 74 -34 110 -14 36 -28 85 -32 110 -4 25 -14 56 -22 70 -13 24 -14 23
-10 -22 l4 -47 -40 34 c-58 50 -61 32 -3 -23 46 -44 76 -94 90 -154 8 -36 2
-35 -48 5 -60 49 -70 54 -57 28 6 -11 20 -25 31 -31 26 -14 100 -112 100 -133
0 -21 -30 -22 -97 -2 -58 17 -129 85 -165 159 -23 49 -44 64 -28 20 19 -50 13
-58 -26 -34 -49 31 -52 20 -3 -16 22 -16 75 -55 118 -86 46 -34 99 -64 134
-74 31 -10 57 -21 57 -25 0 -4 -20 -15 -45 -24 -32 -13 -59 -16 -97 -11 -43 5
-49 4 -34 -6 19 -11 35 -11 166 -5 52 2 59 -1 137 -56 49 -34 96 -77 115 -104
l31 -46 -90 6 c-95 6 -144 -5 -76 -18 l38 -7 -35 -19 c-44 -23 -15 -26 45 -4
22 8 60 14 84 15 44 0 46 -2 150 -111 109 -114 151 -171 151 -201 0 -22 5 -22
-61 1 -75 25 -135 56 -194 100 -80 59 -84 58 -21 -7 l60 -61 -35 -14 c-19 -8
-41 -17 -49 -20 -8 -3 19 -3 61 0 62 5 88 2 143 -17 84 -28 121 -59 151 -127
27 -60 40 -69 30 -20 -6 32 -6 32 8 7 19 -34 32 -156 17 -165 -24 -15 -170 47
-275 117 -122 82 -177 153 -220 288 -10 30 -22 60 -28 65 -7 7 -8 5 -5 -5 24
-72 50 -171 45 -176 -7 -7 -41 11 -85 43 -18 14 -70 82 -116 151 -49 76 -102
143 -130 167 -119 100 -143 129 -151 173 -4 23 -11 42 -17 42 -11 0 -6 -74 7
-103 7 -18 3 -19 -71 -12 -99 9 -92 -1 14 -20 97 -17 144 -39 205 -99 62 -60
148 -197 171 -273 11 -35 -10 -30 -131 32 -119 60 -179 111 -247 210 -36 52
-41 57 -44 37 -4 -24 -11 -25 -76 -5 -12 3 -16 1 -12 -6 4 -6 25 -16 47 -22
46 -14 116 -70 106 -86 -9 -14 -85 -33 -134 -33 -26 -1 -33 -3 -23 -9 9 -5 51
-4 100 2 l85 10 45 -30 c25 -16 69 -43 98 -58 28 -16 52 -34 52 -42 0 -7 -2
-13 -5 -13 -3 0 -49 -5 -101 -11 -132 -14 -166 -31 -44 -22 140 12 246 6 324
-17 70 -20 146 -62 146 -80 0 -6 -21 -10 -47 -10 -27 0 -55 -5 -63 -10 -11 -7
1 -10 40 -10 32 0 72 -8 95 -19 55 -25 147 -100 139 -113 -5 -7 -42 -9 -105
-5 -123 6 -176 29 -278 120 -41 37 -77 64 -80 61 -3 -2 28 -38 69 -79 74 -74
74 -75 44 -75 -39 0 -151 38 -231 79 -77 39 -84 39 -48 1 16 -17 26 -30 23
-30 -15 0 -188 65 -231 87 -62 31 -85 25 -27 -8 24 -13 44 -28 44 -33 1 -5
-13 -14 -31 -20 -53 -18 -45 -22 26 -12 75 10 169 -6 260 -46 40 -17 43 -21
26 -28 -11 -4 -45 -11 -75 -14 -111 -14 -197 -33 -189 -41 3 -2 45 2 94 10
119 20 145 19 145 -2 0 -9 -7 -25 -17 -35 -15 -17 -15 -18 3 -18 27 0 39 10
58 47 9 17 20 34 25 38 6 3 62 -1 126 -10 64 -8 118 -15 121 -15 2 0 4 -4 4
-10 0 -5 -6 -10 -14 -10 -7 0 -35 -11 -61 -26 -26 -14 -73 -31 -104 -39 -68
-18 -131 -45 -131 -57 0 -13 18 -10 58 11 20 10 64 24 97 31 33 6 79 23 101
36 57 32 163 47 313 42 121 -4 129 -5 206 -41 170 -80 190 -108 189 -267 0
-149 -19 -180 -105 -180 -33 0 -41 4 -49 25 -12 32 -40 33 -40 1 0 -31 -15
-42 -69 -51 -35 -6 -41 -9 -28 -17 11 -5 31 -5 54 1 21 6 71 11 111 11 69 0
76 2 102 30 35 38 44 87 38 213 -3 73 -9 103 -28 142 -23 46 -30 52 -100 80
l-75 30 50 5 c46 5 51 8 61 39 l11 33 29 -38 c17 -22 36 -52 43 -69 12 -27 14
-28 21 -10 4 11 10 60 14 110 8 91 24 149 26 90 4 -101 17 -255 23 -261 4 -4
18 -2 32 4 30 14 32 6 5 -23 -25 -27 -41 -78 -30 -96 5 -7 3 -21 -6 -33 -8
-11 -14 -30 -14 -41 1 -20 1 -20 15 -1 14 18 15 14 15 -50 0 -80 8 -96 47 -99
15 -1 53 -12 83 -23 86 -32 208 -64 227 -60 11 2 -3 11 -34 22 -29 10 -53 23
-53 31 0 7 -7 18 -15 25 -12 10 -18 10 -30 0 -12 -10 -21 -10 -41 -1 -14 6
-40 11 -59 11 -64 0 -80 37 -80 180 0 105 15 143 76 194 63 54 210 69 518 55
185 -8 238 -14 305 -33 93 -27 190 -43 165 -27 -8 5 -48 17 -87 26 -39 9 -74
21 -77 26 -4 5 10 16 29 26 33 15 43 15 158 -1 68 -9 134 -19 148 -22 21 -4
22 -3 8 6 -9 5 -54 15 -100 22 -117 16 -122 20 -58 54 71 39 253 159 270 179
27 33 -1 24 -65 -20 -78 -53 -162 -98 -176 -93 -5 2 13 30 40 63 27 33 48 62
45 64 -2 3 -43 -34 -92 -81 -67 -66 -98 -89 -137 -101 -74 -24 -187 -49 -193
-42 -3 3 14 25 38 50 56 57 46 70 -12 16 -59 -53 -83 -61 -191 -60 -145 1
-146 3 -36 93 52 43 111 86 131 97 55 28 295 105 358 115 55 8 55 8 17 14
l-38 5 50 40 c28 22 75 54 104 70 30 17 71 44 92 60 20 17 47 38 58 47 18 14
19 17 6 18 -9 0 -45 -22 -80 -49 -102 -77 -130 -76 -83 4 43 74 19 64 -29 -12
-63 -98 -121 -145 -223 -182 -47 -17 -89 -31 -94 -31 -6 0 2 26 16 58 28 60
49 120 58 163 3 15 42 67 86 117 44 50 80 94 80 99 0 4 -34 -26 -75 -67 -41
-41 -77 -71 -81 -67 -8 7 19 94 74 237 52 136 56 150 43 150 -6 0 -14 -12 -17
-27 -14 -57 -76 -203 -85 -197 -5 3 -9 39 -9 80 0 41 -4 74 -9 74 -5 0 -11
-75 -14 -167 -5 -190 -17 -248 -75 -363 l-37 -75 -184 -123 c-100 -68 -185
-121 -188 -119 -7 8 19 86 33 97 6 6 40 16 75 23 l64 12 -52 3 c-29 2 -53 7
-53 11 0 5 25 30 55 56 64 54 75 83 14 34 l-42 -33 7 50 c6 45 5 47 -9 30 -8
-11 -15 -34 -15 -51 0 -18 -11 -46 -26 -66 -14 -19 -43 -69 -65 -111 -21 -42
-43 -80 -49 -83 -7 -4 -59 -13 -116 -21 -72 -9 -127 -23 -175 -45 -39 -17 -73
-28 -76 -25 -3 3 12 25 34 49 50 54 136 181 158 232 21 52 116 177 157 209 50
38 164 88 212 93 24 3 53 0 66 -7 14 -8 26 -8 32 -2 11 11 -41 32 -79 32 -40
0 -17 17 55 41 37 13 59 25 49 27 -24 5 -136 -34 -177 -62 -42 -28 -136 -63
-146 -53 -13 13 29 62 160 192 86 84 154 142 195 165 34 19 72 43 84 53 21 17
20 17 -21 1 -24 -9 -46 -14 -49 -10 -11 11 49 131 86 171 21 22 44 49 52 59
13 18 12 18 -6 9 -11 -6 -31 -23 -44 -37 -14 -14 -28 -26 -33 -26 -4 0 -8 21
-8 47 0 71 -19 40 -27 -43 -8 -95 -37 -147 -128 -232 -87 -81 -108 -89 -99
-39 12 68 45 180 64 218 22 42 18 49 -13 22 -19 -17 -19 -17 -14 2 8 28 64
273 72 313 4 18 3 32 -3 32 -12 0 -22 -24 -22 -55 0 -34 -39 -155 -50 -155 -6
0 -10 26 -10 58 0 31 -4 63 -9 71 -17 27 -21 -8 -11 -102 11 -111 0 -251 -30
-375 -25 -104 -34 -120 -115 -218 -36 -43 -87 -112 -112 -151 -25 -40 -47 -73
-50 -73 -13 0 7 180 27 239 11 35 18 66 16 69 -3 2 -16 -21 -30 -52 -27 -61
-43 -71 -48 -29 -2 14 -8 28 -14 30 -7 2 -6 -20 2 -69 17 -97 17 -204 0 -261
-16 -53 -88 -165 -151 -234 -62 -68 -71 -56 -68 95 2 140 22 246 63 327 18 37
81 119 161 210 120 136 179 223 179 265 0 8 11 60 25 115 13 55 31 152 38 215
8 63 18 123 22 133 9 20 -8 23 -24 3 -7 -8 -21 -12 -32 -9 -21 6 -21 5 -4 -28
25 -47 15 -169 -26 -332 -26 -103 -40 -140 -74 -190 -43 -65 -75 -85 -75 -47
0 25 15 57 42 86 19 21 19 21 -6 17 l-26 -5 -1 83 c-1 46 -1 105 1 131 2 52
-6 88 -21 88 -5 0 -9 -54 -9 -124 0 -96 -3 -128 -15 -139 -8 -8 -27 -37 -43
-63 -28 -48 -79 -83 -145 -100 -25 -6 -25 -5 -32 95 l-7 101 49 57 c69 82 93
114 93 127 0 6 -31 -23 -69 -64 -38 -41 -72 -72 -75 -69 -3 3 -9 44 -12 91
l-7 86 29 15 c16 8 61 25 99 37 78 25 150 59 142 66 -3 3 -23 -4 -46 -15 -41
-22 -71 -27 -71 -13 0 4 14 24 31 45 17 21 28 41 24 45 -4 4 -17 -6 -28 -21
-51 -67 -85 -96 -126 -107 -58 -15 -71 -9 -71 38 0 45 22 69 147 157 46 32 81
61 78 63 -3 3 -13 -2 -23 -11 -26 -24 -30 -22 -34 21 l-3 37 -14 -40 c-7 -22
-23 -51 -35 -63 -23 -26 -75 -56 -83 -49 -2 3 3 22 12 43 10 22 24 55 32 74
l15 35 -26 -24 c-29 -27 -31 -26 -45 9 -8 20 -10 12 -10 -44z m-41 -352 c12
-67 20 -141 18 -165 l-3 -44 -48 49 c-26 27 -50 59 -53 71 -3 13 4 53 15 90
12 37 21 82 21 99 0 37 10 53 21 34 4 -7 17 -68 29 -134z m-46 -191 c27 -37
55 -87 63 -112 30 -101 29 -421 -2 -421 -25 0 -125 107 -150 162 -30 64 -31
94 -5 176 22 69 26 117 10 107 -5 -3 -10 -15 -10 -25 0 -28 -30 -100 -42 -100
-12 0 -8 21 38 168 19 61 38 112 42 111 4 0 29 -30 56 -66z m340 -74 c-21 -24
-29 -18 -14 10 6 12 16 19 21 15 6 -4 4 -13 -7 -25z m-231 -94 c4 -55 3 -69
-3 -45 -13 51 -22 169 -12 145 5 -11 12 -56 15 -100z m242 13 c-9 -54 -39
-107 -105 -183 -60 -70 -80 -86 -91 -79 -5 3 -9 42 -9 87 0 99 6 108 110 171
94 58 104 59 95 4z m-530 -38 c-5 -8 -11 -8 -17 -2 -6 6 -7 16 -3 22 5 8 11 8
17 2 6 -6 7 -16 3 -22z m35 -93 c0 -43 48 -124 128 -214 81 -91 82 -93 82
-145 0 -76 -19 -266 -31 -311 -14 -52 -25 -41 -92 96 -99 202 -109 240 -115
419 -2 87 -2 165 2 173 8 22 26 9 26 -18z m269 -82 c1 -16 -1 -17 -9 -5 -5 8
-9 29 -9 45 1 29 1 29 9 5 4 -14 8 -34 9 -45z m491 21 c0 -2 -8 -10 -17 -17
-16 -13 -17 -12 -4 4 13 16 21 21 21 13z m-60 -65 c-11 -21 -30 -37 -30 -25 0
8 30 44 37 44 2 0 -1 -9 -7 -19z m-410 -68 c13 3 17 1 13 -10 -8 -20 -47 -12
-51 10 -2 10 0 26 4 35 6 14 9 11 12 -11 3 -22 8 -28 22 -24z m-370 -83 c17 0
99 -225 86 -237 -7 -7 -19 24 -47 115 -20 67 -28 78 -86 129 -75 66 -84 90
-12 33 28 -22 54 -40 59 -40z m665 -42 c-20 -29 -40 -55 -45 -58 -4 -3 -9 -14
-11 -24 -2 -11 -10 -21 -17 -24 -16 -5 15 58 67 137 23 35 37 49 39 38 2 -9
-13 -40 -33 -69z m-343 -83 c-3 -47 -8 -72 -13 -63 -10 16 -11 108 -2 163 l7
40 6 -32 c4 -17 5 -66 2 -108z m-15 -137 c-3 -8 -6 -5 -6 6 -1 11 2 17 5 13 3
-3 4 -12 1 -19z m-542 -39 c14 -22 -3 -18 -26 7 -23 25 -23 26 -2 15 12 -6 25
-16 28 -22z m1175 -49 c-25 -21 -61 -47 -80 -57 -19 -10 -40 -25 -47 -33 -10
-13 -14 -13 -25 -1 -10 10 -10 15 -1 18 7 3 50 29 95 59 98 63 121 69 58 14z
m-473 12 c-10 -10 -17 -23 -17 -29 0 -6 -16 -25 -35 -42 -35 -31 -45 -36 -45
-25 0 7 101 114 108 114 3 0 -2 -8 -11 -18z m-539 -80 c18 -13 31 -27 28 -30
-4 -3 -20 4 -36 16 -16 12 -33 22 -38 22 -4 0 -21 14 -38 32 l-29 31 40 -23
c22 -13 55 -34 73 -48z m742 -32 c-8 -5 -35 -9 -60 -9 -34 0 -40 2 -25 9 29
13 104 13 85 0z m205 -10 c3 -5 2 -10 -4 -10 -5 0 -13 5 -16 10 -3 6 -2 10 4
10 5 0 13 -4 16 -10z m52 -6 c-3 -3 -12 -4 -19 -1 -8 3 -5 6 6 6 11 1 17 -2
13 -5z m281 -6 c-3 -7 -11 -13 -18 -13 -7 0 -15 6 -17 13 -3 7 4 12 17 12 13
0 20 -5 18 -12z"/>
<path d="M4000 1780 c0 -136 2 -160 15 -160 8 0 15 7 15 17 0 15 1 15 18 0 11
-10 35 -17 60 -17 32 0 45 6 61 26 46 58 35 161 -19 189 -37 19 -54 19 -90 0
l-30 -16 0 61 c0 47 -3 60 -15 60 -13 0 -15 -24 -15 -160z m144 18 c20 -28 21
-108 2 -133 -15 -21 -67 -25 -90 -5 -22 18 -22 117 1 142 23 25 68 23 87 -4z"/>
<path d="M4260 1780 c0 -136 2 -160 15 -160 13 0 15 24 15 160 0 136 -2 160
-15 160 -13 0 -15 -24 -15 -160z"/>
<path d="M2930 1771 l0 -151 35 0 35 0 0 55 0 55 39 0 c54 0 91 32 98 86 4 33
1 45 -20 70 -23 27 -31 29 -106 32 l-81 4 0 -151z m130 79 c30 -30 10 -70 -37
-70 -21 0 -23 5 -23 45 0 38 3 45 20 45 11 0 29 -9 40 -20z"/>
<path d="M3632 1877 c-7 -15 -19 -30 -27 -33 -19 -8 -19 -24 0 -24 12 0 15
-15 15 -78 0 -95 15 -122 66 -122 22 0 34 5 34 14 0 8 -7 12 -17 10 -38 -9
-48 11 -48 93 l0 78 33 3 c41 4 42 20 0 24 -28 2 -34 8 -39 33 l-6 30 -11 -28z"/>
<path d="M3250 1843 c-30 -11 -50 -37 -60 -73 -22 -81 21 -150 92 -150 22 0
48 5 59 10 54 29 64 139 17 186 -24 25 -80 39 -108 27z m80 -43 c15 -15 20
-33 20 -69 0 -66 -22 -88 -80 -82 -48 6 -69 112 -30 151 11 11 31 20 45 20 14
0 34 -9 45 -20z"/>
<path d="M3507 1830 c-22 -18 -27 -19 -27 -6 0 9 -7 16 -15 16 -12 0 -15 -19
-15 -110 0 -91 3 -110 15 -110 12 0 15 14 15 68 0 81 15 114 58 128 18 6 34
15 35 20 4 18 -40 14 -66 -6z"/>
<path d="M3811 1841 c-14 -4 -26 -12 -29 -19 -3 -10 8 -11 46 -6 45 6 51 4 62
-16 18 -33 6 -50 -37 -50 -79 0 -123 -53 -89 -104 13 -21 24 -26 60 -26 27 0
48 6 57 16 11 14 13 14 21 0 20 -35 28 -12 28 77 0 98 -3 108 -37 126 -24 12
-45 13 -82 2z m89 -127 c0 -46 -54 -83 -91 -64 -27 15 -25 58 4 70 38 15 87
12 87 -6z"/>
<path d="M4392 1825 c-38 -31 -49 -81 -33 -136 16 -53 46 -71 112 -67 38 2 55
7 57 18 2 12 -7 14 -48 11 -58 -3 -90 16 -90 56 0 22 3 23 75 23 l75 0 0 29
c0 41 -37 80 -81 87 -28 5 -41 1 -67 -21z m92 -21 c9 -8 16 -24 16 -35 0 -16
-7 -19 -55 -19 -45 0 -55 3 -55 17 0 44 63 69 94 37z"/>
<path d="M3320 1300 l0 -60 -35 17 c-68 33 -129 -18 -129 -107 0 -70 27 -104
84 -108 29 -2 48 2 61 14 17 16 19 16 19 1 0 -10 7 -17 15 -17 13 0 15 24 15
160 0 136 -2 160 -15 160 -12 0 -15 -13 -15 -60z m-27 -75 c31 -30 33 -120 4
-143 -52 -41 -107 -4 -107 73 0 32 6 51 20 65 24 24 63 26 83 5z"/>
<path d="M4263 1334 c-8 -21 13 -42 28 -27 13 13 5 43 -11 43 -6 0 -13 -7 -17
-16z"/>
<path d="M2930 1190 l0 -150 85 0 c84 0 85 0 85 25 0 23 -3 25 -50 25 l-50 0
0 40 0 40 50 0 c47 0 50 2 50 25 0 23 -3 25 -50 25 l-50 0 0 35 0 35 50 0 c47
0 50 2 50 25 0 25 -1 25 -85 25 l-85 0 0 -150z"/>
<path d="M4124 1295 c-3 -14 -16 -31 -27 -37 l-21 -11 22 -8 c20 -8 22 -15 22
-92 0 -51 5 -88 12 -95 17 -17 91 -16 85 1 -2 6 -10 11 -16 9 -7 -1 -21 2 -31
8 -17 9 -20 21 -20 90 l0 80 30 0 c17 0 30 5 30 10 0 6 -13 10 -30 10 -27 0
-30 3 -30 30 0 36 -17 40 -26 5z"/>
<path d="M3721 1256 c-34 -19 -50 -54 -51 -108 0 -36 6 -54 26 -78 24 -28 31
-31 77 -28 70 4 76 28 7 28 -49 0 -52 1 -66 36 -30 73 8 139 77 132 37 -4 51
17 17 26 -35 9 -61 7 -87 -8z"/>
<path d="M3920 1261 c-26 -7 -36 -39 -10 -32 69 18 100 8 100 -34 0 -20 -6
-23 -56 -27 -32 -3 -62 -11 -71 -21 -22 -22 -21 -76 2 -93 26 -19 85 -17 107
2 16 16 18 16 24 0 15 -39 24 -9 24 83 0 73 -4 102 -14 110 -18 15 -74 22
-106 12z m90 -135 c0 -44 -52 -76 -90 -56 -46 24 -6 80 57 80 28 0 33 -4 33
-24z"/>
<path d="M4408 1254 c-37 -20 -48 -43 -48 -103 0 -39 6 -56 26 -80 22 -26 33
-31 71 -31 63 0 103 40 103 104 0 58 -17 94 -51 112 -35 18 -66 17 -101 -2z
m89 -29 c45 -32 36 -137 -13 -155 -73 -28 -126 77 -73 144 23 29 54 33 86 11z"/>
<path d="M4681 1254 c-17 -13 -26 -14 -29 -6 -2 7 -10 12 -18 12 -11 0 -14
-22 -14 -110 0 -86 3 -110 14 -110 9 0 15 22 19 81 6 90 22 119 67 119 43 0
50 -16 50 -112 0 -81 2 -88 20 -88 19 0 20 7 20 89 0 70 -4 93 -17 110 -25 30
-81 37 -112 15z"/>
<path d="M3422 1164 c2 -81 6 -98 22 -110 26 -19 86 -18 114 2 20 14 22 14 22
0 0 -9 7 -16 15 -16 12 0 15 19 15 110 0 103 -1 110 -20 110 -17 0 -19 -8 -22
-87 -3 -84 -4 -88 -30 -100 -18 -10 -34 -10 -52 -3 -25 9 -26 12 -26 100 0 85
-1 90 -21 90 -20 0 -21 -4 -17 -96z"/>
<path d="M4260 1150 c0 -91 3 -110 15 -110 12 0 15 19 15 110 0 91 -3 110 -15
110 -12 0 -15 -19 -15 -110z"/>
<path d="M3580 610 c0 -136 2 -160 15 -160 13 0 15 24 15 160 0 136 -2 160
-15 160 -13 0 -15 -24 -15 -160z"/>
<path d="M3477 747 c-3 -8 -1 -20 4 -28 11 -19 34 3 26 25 -8 20 -23 21 -30 3z"/>
<path d="M2930 600 l0 -150 68 0 c80 0 127 20 160 70 20 29 23 45 20 92 -7 95
-64 138 -183 138 l-65 0 0 -150z m163 69 c11 -14 17 -38 17 -69 0 -59 -22 -89
-72 -97 l-38 -6 0 103 0 103 38 -6 c20 -4 45 -16 55 -28z"/>
<path d="M3278 669 c-17 -7 -25 -15 -21 -24 4 -11 10 -12 23 -5 45 24 90 5 90
-37 0 -20 -5 -23 -41 -23 -41 0 -78 -14 -91 -34 -13 -19 -9 -64 8 -80 20 -20
83 -21 112 0 20 14 22 14 22 0 0 -9 7 -16 16 -16 14 0 15 13 12 95 -2 69 -7
99 -19 110 -20 20 -76 27 -111 14z m92 -128 c0 -32 -12 -52 -35 -61 -55 -21
-98 27 -55 62 31 25 90 24 90 -1z"/>
<path d="M3480 560 c0 -91 3 -110 15 -110 12 0 15 19 15 110 0 91 -3 110 -15
110 -12 0 -15 -19 -15 -110z"/>
<path d="M3660 663 c0 -4 19 -55 41 -111 41 -102 42 -104 26 -138 -13 -25 -23
-34 -42 -34 -16 0 -25 -6 -25 -15 0 -24 53 -19 78 8 11 12 41 76 65 142 25 66
48 128 52 138 5 12 2 17 -12 17 -15 0 -25 -19 -48 -85 -16 -47 -32 -85 -35
-85 -3 0 -19 37 -36 83 -19 52 -37 83 -47 85 -10 2 -17 0 -17 -5z"/>
<path d="M3130 252 c0 -26 -3 -28 -30 -24 -41 6 -60 -13 -60 -58 0 -46 16 -61
64 -58 l36 3 0 83 c0 45 -2 82 -5 82 -3 0 -5 -13 -5 -28z m-8 -57 c17 -38 -4
-77 -40 -73 -23 2 -28 8 -30 36 -5 47 3 62 33 62 17 0 29 -8 37 -25z"/>
<path d="M4553 195 c0 -75 1 -81 6 -35 6 53 7 55 36 55 29 0 30 -2 36 -55 l6
-55 -1 60 -1 60 -35 0 c-31 0 -36 4 -41 30 -4 17 -6 -10 -6 -60z"/>
<path d="M2920 190 l0 -80 48 2 47 1 -42 4 c-41 4 -43 5 -43 38 0 32 2 34 38
38 l37 4 -37 1 c-35 2 -38 4 -38 31 0 28 3 30 43 34 l42 4 -47 1 -48 2 0 -80z"/>
<path d="M4032 243 c-5 -16 -19 -52 -31 -80 -23 -58 -21 -71 4 -23 12 23 22
30 46 30 24 0 32 -6 40 -30 6 -16 15 -30 19 -30 4 0 -6 36 -23 80 -18 44 -35
80 -39 80 -3 0 -10 -12 -16 -27z m35 -33 c11 -29 10 -30 -17 -30 -28 0 -29 1
-19 30 6 17 14 30 18 30 4 0 12 -13 18 -30z"/>
<path d="M3542 240 c-7 -11 -8 -20 -3 -20 6 0 11 -24 13 -52 2 -38 7 -53 18
-54 9 0 10 1 3 3 -8 3 -13 23 -13 53 0 38 4 50 18 53 15 4 15 5 0 6 -9 0 -18
8 -20 16 -2 13 -6 12 -16 -5z"/>
<path d="M3182 185 c-2 -65 6 -76 51 -73 l37 2 -2 61 -1 60 -6 -55 c-6 -53 -7
-55 -36 -55 -29 0 -30 2 -36 55 l-6 55 -1 -50z"/>
<path d="M3320 211 c-26 -50 -1 -102 48 -100 l27 2 -25 4 c-36 7 -50 22 -50
53 0 31 14 46 50 53 21 4 20 4 -7 6 -23 1 -35 -5 -43 -18z"/>
<path d="M3460 224 c39 -7 43 -44 6 -44 -27 0 -59 -26 -53 -43 6 -20 34 -30
61 -23 26 6 27 9 24 59 -3 51 -4 52 -35 55 -33 2 -33 2 -3 -4z m28 -76 c-4
-31 -58 -40 -58 -10 0 25 8 32 37 32 20 0 24 -5 21 -22z"/>
<path d="M3623 170 c0 -36 2 -50 4 -32 2 17 2 47 0 65 -2 17 -4 3 -4 -33z"/>
<path d="M3682 218 c-16 -16 -16 -80 0 -96 15 -15 61 -15 76 0 16 16 16 80 0
96 -7 7 -24 12 -38 12 -14 0 -31 -5 -38 -12z m74 -22 c8 -34 2 -57 -18 -70
-36 -22 -67 18 -54 70 9 35 63 35 72 0z"/>
<path d="M3812 166 l1 -61 6 55 c6 53 7 55 36 55 29 0 30 -2 36 -55 l6 -55 -1
60 -1 60 -42 1 -43 1 2 -61z"/>
<path d="M4142 166 l1 -61 6 55 c6 53 7 55 36 55 29 0 30 -2 36 -55 l6 -55 -1
60 -1 60 -42 1 -43 1 2 -61z"/>
<path d="M4261 223 c-1 -7 8 -35 19 -63 21 -52 17 -81 -12 -94 -7 -3 -5 -5 6
-3 13 1 27 24 47 72 15 39 28 77 28 85 0 8 -10 -9 -21 -38 -12 -29 -22 -51
-24 -50 -1 2 -12 26 -23 53 -11 28 -20 45 -20 38z"/>
<path d="M4371 221 c-1 -18 20 -93 30 -104 4 -5 15 15 25 45 l17 53 16 -47
c22 -64 28 -67 41 -17 6 24 14 53 17 64 3 11 2 17 -2 13 -3 -3 -12 -28 -19
-55 l-13 -48 -17 53 c-10 28 -21 50 -25 47 -5 -2 -14 -26 -22 -52 l-13 -48
-17 55 c-9 30 -17 49 -18 41z"/>
<path d="M4686 208 c-32 -45 -6 -99 47 -97 l32 2 -35 6 c-26 4 -36 12 -38 29
-3 20 1 22 37 22 33 0 41 4 41 18 0 44 -58 57 -84 20z m72 -10 c3 -15 -4 -18
-32 -18 -34 0 -47 15 -29 34 13 13 58 1 61 -16z"/>
<path d="M4823 223 c-9 -3 -12 -24 -11 -61 l1 -57 6 55 c5 47 9 55 31 61 19 5
20 7 5 7 -11 0 -26 -2 -32 -5z"/>
<path d="M4900 211 c-27 -52 -1 -102 53 -100 l32 2 -30 4 c-35 5 -55 20 -55
39 0 10 13 14 45 14 46 0 53 7 35 41 -14 26 -66 26 -80 0z m70 -11 c10 -18 8
-20 -30 -20 -41 0 -49 7 -28 28 18 18 46 14 58 -8z"/>
</g>
</svg>
